<svg width="1070" height="4684" viewBox="0 0 1070 4684" fill="none" xmlns="http://www.w3.org/2000/svg"><g filter="url(#filter0_f_0_1)"><rect x="180" y="3316" width="710" height="710" rx="355" fill="#29C2DE" fill-opacity="0.25"/></g><g filter="url(#filter1_f_0_1)"><rect x="180" y="1748" width="710" height="710" rx="355" fill="#C724B1" fill-opacity="0.14"/></g><g filter="url(#filter2_f_0_1)"><rect x="180" y="180" width="710" height="710" rx="355" fill="#30CEBB" fill-opacity="0.25"/></g><path d="M581.618 4571.11c.964 16.08-16.52 26.65-30.311 18.31l-212.342-128.37c-12.498-7.55-12.947-25.52-.842-33.69l196.694-132.75c12.837-8.66 30.226-.08 31.153 15.38l15.648 261.12z" stroke="#30CEBB" stroke-width="0.5" stroke-miterlimit="10" stroke-linecap="round" stroke-linejoin="round"/><circle cx="455.095" cy="4349.22" r="7" transform="rotate(-115.129 455.095 4349.22)" fill="#30CEBB"/><path opacity="0.8" d="M381.724 3676.29c-31.626-35.69-50.857-79.92-52.59-130.97-1.936-57.36 16.234-107.64 55.084-149.9 34.514-37.53 81.593-61.09 132.413-66.27 50.82-5.18 101.894 8.38 143.651 38.14a215.764 215.764 0 0 1 41.687 39.24c7.38 9.01 15.834 17.32 22.045 27.07 14.574 22.89 8.909 50.91-12.419 66.75-20.388 15.12-49.332 11.4-67.13-8.83-9.786-11.11-18.756-23.07-29.068-33.6-27.111-27.65-59.646-42.98-98.212-32.13-47.197 13.21-80.093 43.13-90.196 92.85-6.604 32.52 4.462 61.44 24.559 87.1 7.419 9.48 15.491 18.46 23.259 27.66 18.694 22.07 17.222 52.55-3.297 70.48-21.287 18.6-51.576 16.23-71.205-5.7-5.628-6.31-10.979-12.92-18.581-21.89z" fill="url(#paint0_linear_0_1)"/><path d="M485.462 2907.87c33.057-59.35 11.745-134.26-47.601-167.31-59.345-33.06-134.252-11.75-167.308 47.6-33.056 59.34-11.745 134.25 47.601 167.31 59.346 33.05 134.252 11.74 167.308-47.6z" stroke="#FFC600" stroke-width="0.5" stroke-miterlimit="10" stroke-linecap="round" stroke-linejoin="round"/><circle cx="487.608" cy="2905.05" r="12.5" transform="rotate(-60.8816 487.608 2905.05)" fill="#C724B1"/><path d="M515.762 1428.38c66.458-14.07 108.924-79.35 94.851-145.81-14.073-66.46-79.355-108.93-145.813-94.85-66.457 14.07-108.923 79.35-94.85 145.81 14.072 66.46 79.355 108.92 145.812 94.85z" stroke="#005151" stroke-width="0.5" stroke-miterlimit="10" stroke-linecap="round" stroke-linejoin="round"/><circle cx="493.833" cy="1430.99" r="7" transform="rotate(-11.956 493.833 1430.99)" fill="#30CEBB"/><path opacity="0.8" d="M547.774 2037.66h-80.286v-80.49c0-36.67-29.713-66.17-66.168-66.17-36.666 0-66.168 29.71-66.168 66.17V2170h212.833c36.666 0 66.167-29.71 66.167-66.17-.21-36.66-29.923-66.17-66.378-66.17z" fill="url(#paint1_linear_0_1)"/><circle opacity="0.7" cx="518.645" cy="691.5" r="41.5" fill="url(#paint2_linear_0_1)"/><defs><linearGradient id="paint0_linear_0_1" x1="304.705" y1="3648.24" x2="600.079" y2="3672.69" gradientUnits="userSpaceOnUse"><stop stop-color="#fff" stop-opacity="0.18"/><stop offset="1" stop-color="#fff" stop-opacity="0.4"/></linearGradient><linearGradient id="paint1_linear_0_1" x1="641.163" y1="2033.9" x2="453.888" y2="1902.76" gradientUnits="userSpaceOnUse"><stop stop-color="#fff" stop-opacity="0.18"/><stop offset="1" stop-color="#fff" stop-opacity="0.4"/></linearGradient><linearGradient id="paint2_linear_0_1" x1="518.645" y1="650" x2="518.645" y2="733" gradientUnits="userSpaceOnUse"><stop stop-color="#fff"/><stop offset="1" stop-color="#fff" stop-opacity="0"/></linearGradient><filter id="filter0_f_0_1" x="0" y="3136" width="1070" height="1070" filterUnits="userSpaceOnUse" color-interpolation-filters="sRGB"><feFlood flood-opacity="0" result="BackgroundImageFix"/><feBlend in="SourceGraphic" in2="BackgroundImageFix" result="shape"/><feGaussianBlur stdDeviation="90" result="effect1_foregroundBlur_0_1"/></filter><filter id="filter1_f_0_1" x="0" y="1568" width="1070" height="1070" filterUnits="userSpaceOnUse" color-interpolation-filters="sRGB"><feFlood flood-opacity="0" result="BackgroundImageFix"/><feBlend in="SourceGraphic" in2="BackgroundImageFix" result="shape"/><feGaussianBlur stdDeviation="90" result="effect1_foregroundBlur_0_1"/></filter><filter id="filter2_f_0_1" x="0" y="0" width="1070" height="1070" filterUnits="userSpaceOnUse" color-interpolation-filters="sRGB"><feFlood flood-opacity="0" result="BackgroundImageFix"/><feBlend in="SourceGraphic" in2="BackgroundImageFix" result="shape"/><feGaussianBlur stdDeviation="90" result="effect1_foregroundBlur_0_1"/></filter></defs></svg>